<?xml version="1.0" encoding="UTF-8" standalone="no"?>
<!DOCTYPE svg PUBLIC "-//W3C//DTD SVG 1.1//EN" "http://www.w3.org/Graphics/SVG/1.1/DTD/svg11.dtd">
<svg width="100%" height="100%" viewBox="0 0 1920 1080" version="1.1" xmlns="http://www.w3.org/2000/svg" xmlns:xlink="http://www.w3.org/1999/xlink" xml:space="preserve" xmlns:serif="http://www.serif.com/" style="fill-rule:evenodd;clip-rule:evenodd;stroke-linecap:round;stroke-linejoin:round;stroke-miterlimit:1.5;">
    <ellipse cx="915.5" cy="568" rx="609.5" ry="292" style="fill:url(#_Linear1);stroke:black;stroke-width:20px;"/>
    <g transform="matrix(0.644889,-0.188958,0.121873,0.415936,-94.5336,364.581)">
        <path d="M915.5,276C1251.89,276 1525,406.841 1525,568C1525,729.159 1251.89,860 915.5,860C579.108,860 306,665.333 306,568C306,470.667 579.108,276 915.5,276Z" style="fill:url(#_Radial2);stroke:black;stroke-width:35.37px;"/>
    </g>
    <g transform="matrix(0.644889,0.188958,0.121873,-0.415936,-94.3093,736.667)">
        <path d="M915.5,276C1251.89,276 1525,406.841 1525,568C1525,729.159 1251.89,860 915.5,860C579.108,860 306,665.333 306,568C306,470.667 579.108,276 915.5,276Z" style="fill:url(#_Radial3);stroke:black;stroke-width:35.37px;"/>
    </g>
    <g transform="matrix(0.670589,0.0435622,0.0280965,-0.432512,113.747,990.889)">
        <path d="M915.5,276C1251.89,276 1525,406.841 1525,568C1525,729.159 1251.89,860 915.5,860C579.108,860 306,665.333 306,568C306,470.667 579.108,276 915.5,276Z" style="fill:url(#_Radial4);stroke:black;stroke-width:35.37px;"/>
    </g>
    <g transform="matrix(0.670589,-0.0435622,0.0280965,0.432512,113.747,111.171)">
        <path d="M915.5,276C1251.89,276 1525,406.841 1525,568C1525,729.159 1251.89,860 915.5,860C579.108,860 306,665.333 306,568C306,470.667 579.108,276 915.5,276Z" style="fill:url(#_Radial5);stroke:black;stroke-width:35.37px;"/>
    </g>
    <g transform="matrix(1.62222,0,0,1.62222,-645.944,-329.089)">
        <path d="M1415,510C1464.67,510 1505,538.667 1505,553C1505,567.333 1464.67,596 1415,596C1365.33,596 1325,576.732 1325,553C1325,529.268 1365.33,510 1415,510Z" style="fill:url(#_Radial6);stroke:black;stroke-width:6.16px;"/>
    </g>
    <g transform="matrix(1.66135,0,0,1.7903,-700.285,-458.321)">
        <ellipse cx="1295.5" cy="573.269" rx="125.5" ry="110.269" style="fill:url(#_Radial7);stroke:black;stroke-width:11.58px;"/>
    </g>
    <g transform="matrix(0.684932,0,0,0.610764,521.479,197.187)">
        <ellipse cx="1561.5" cy="499.068" rx="36.5" ry="40.932" style="stroke:black;stroke-width:15.41px;"/>
    </g>
    <g transform="matrix(0.684932,0,0,0.610764,521.479,319.323)">
        <ellipse cx="1561.5" cy="499.068" rx="36.5" ry="40.932" style="stroke:black;stroke-width:15.41px;"/>
    </g>
    <defs>
        <linearGradient id="_Linear1" x1="0" y1="0" x2="1" y2="0" gradientUnits="userSpaceOnUse" gradientTransform="matrix(662.5,0,0,662.5,719,540)"><stop offset="0" style="stop-color:rgb(195,172,180);stop-opacity:1"/><stop offset="0.2" style="stop-color:rgb(154,113,116);stop-opacity:1"/><stop offset="0.47" style="stop-color:rgb(144,98,100);stop-opacity:1"/><stop offset="0.7" style="stop-color:rgb(115,78,78);stop-opacity:1"/><stop offset="1" style="stop-color:rgb(49,33,29);stop-opacity:1"/></linearGradient>
        <radialGradient id="_Radial2" cx="0" cy="0" r="1" gradientUnits="userSpaceOnUse" gradientTransform="matrix(-713.998,-45.987,-10.2653,383.132,913.604,638.766)"><stop offset="0" style="stop-color:white;stop-opacity:1"/><stop offset="0.55" style="stop-color:rgb(237,226,217);stop-opacity:1"/><stop offset="1" style="stop-color:rgb(170,120,77);stop-opacity:1"/></radialGradient>
        <radialGradient id="_Radial3" cx="0" cy="0" r="1" gradientUnits="userSpaceOnUse" gradientTransform="matrix(-713.998,-45.987,-10.2653,383.132,913.604,638.766)"><stop offset="0" style="stop-color:white;stop-opacity:1"/><stop offset="0.55" style="stop-color:rgb(237,226,217);stop-opacity:1"/><stop offset="1" style="stop-color:rgb(170,120,77);stop-opacity:1"/></radialGradient>
        <radialGradient id="_Radial4" cx="0" cy="0" r="1" gradientUnits="userSpaceOnUse" gradientTransform="matrix(-713.998,-45.987,-10.2653,383.132,913.604,638.766)"><stop offset="0" style="stop-color:white;stop-opacity:1"/><stop offset="0.55" style="stop-color:rgb(237,220,217);stop-opacity:1"/><stop offset="1" style="stop-color:rgb(170,93,77);stop-opacity:1"/></radialGradient>
        <radialGradient id="_Radial5" cx="0" cy="0" r="1" gradientUnits="userSpaceOnUse" gradientTransform="matrix(-713.998,-45.987,-10.2653,383.132,913.604,638.766)"><stop offset="0" style="stop-color:white;stop-opacity:1"/><stop offset="0.55" style="stop-color:rgb(237,220,217);stop-opacity:1"/><stop offset="1" style="stop-color:rgb(170,93,77);stop-opacity:1"/></radialGradient>
        <radialGradient id="_Radial6" cx="0" cy="0" r="1" gradientUnits="userSpaceOnUse" gradientTransform="matrix(-1.17318e-13,306.427,-146.404,-5.60518e-14,1325,553)"><stop offset="0" style="stop-color:rgb(135,118,11);stop-opacity:1"/><stop offset="1" style="stop-color:rgb(253,253,20);stop-opacity:1"/></radialGradient>
        <radialGradient id="_Radial7" cx="0" cy="0" r="1" gradientUnits="userSpaceOnUse" gradientTransform="matrix(152.285,0,0,141.317,1295.5,573.269)"><stop offset="0" style="stop-color:rgb(12,142,74);stop-opacity:1"/><stop offset="0.61" style="stop-color:rgb(10,118,61);stop-opacity:1"/><stop offset="0.82" style="stop-color:rgb(5,61,31);stop-opacity:1"/><stop offset="1" style="stop-color:black;stop-opacity:1"/></radialGradient>
    </defs>
</svg>
